<?xml version="1.0" standalone="no"?>
<!DOCTYPE svg PUBLIC "-//W3C//DTD SVG 20010904//EN"
 "http://www.w3.org/TR/2001/REC-SVG-20010904/DTD/svg10.dtd">
<svg version="1.0" xmlns="http://www.w3.org/2000/svg"
 width="700.000000pt" height="700.000000pt" viewBox="0 0 700.000000 700.000000"
 preserveAspectRatio="xMidYMid meet">
<metadata>
Created by potrace 1.14, written by Peter Selinger 2001-2017
</metadata>
<g transform="translate(0.000000,700.000000) scale(0.100000,-0.100000)"
fill="#000000" stroke="none">
<path d="M3478 6565 c-1 -1 -36 -5 -76 -9 -165 -13 -238 -38 -557 -191 -66
-32 -147 -70 -180 -85 -33 -15 -125 -59 -205 -98 -227 -109 -358 -172 -445
-212 -141 -66 -266 -126 -449 -214 -98 -47 -180 -86 -182 -86 -2 0 -94 -44
-206 -99 -128 -62 -233 -121 -283 -158 -258 -192 -412 -465 -451 -796 -13
-102 -7 -2187 5 -2275 47 -328 229 -617 501 -794 50 -32 166 -90 425 -213 50
-24 153 -73 230 -110 141 -67 242 -115 390 -185 44 -21 160 -76 259 -124 98
-47 179 -86 181 -86 2 0 88 -41 191 -91 454 -219 505 -241 630 -272 195 -49
439 -32 629 43 39 16 150 67 249 114 98 47 179 86 181 86 1 0 89 42 196 94
107 51 219 105 249 119 30 14 118 55 195 92 77 37 172 82 210 100 87 41 263
125 415 198 63 30 176 84 251 120 127 61 245 127 284 158 262 215 412 486 441
799 13 135 8 2176 -5 2268 -23 162 -83 327 -167 458 -46 72 -56 84 -134 168
-126 134 -233 199 -665 401 -79 37 -223 106 -400 190 -66 32 -165 79 -220 105
-55 26 -154 73 -220 105 -169 81 -318 152 -400 190 -38 18 -142 68 -230 110
-88 42 -182 86 -210 97 -93 38 -219 68 -310 74 -49 3 -95 7 -102 9 -6 2 -13 2
-15 0z m127 -450 c67 -10 133 -35 290 -110 77 -37 181 -86 230 -110 50 -23
137 -65 195 -93 136 -64 298 -142 430 -204 124 -59 244 -117 430 -206 74 -35
162 -77 195 -92 178 -82 419 -202 452 -224 141 -96 247 -260 285 -440 12 -60
18 -2137 6 -2226 -28 -203 -126 -368 -285 -481 -33 -23 -425 -219 -438 -219
-2 0 -92 -43 -202 -96 -109 -53 -216 -104 -238 -114 -22 -10 -125 -59 -229
-109 -104 -50 -190 -91 -191 -91 -2 0 -83 -39 -182 -86 -98 -47 -205 -99 -238
-114 -33 -15 -130 -62 -215 -103 -248 -118 -322 -135 -497 -113 -84 10 -116
24 -592 252 -84 41 -155 74 -156 74 -1 0 -83 39 -181 86 -99 47 -215 103 -259
124 -243 114 -639 303 -864 412 -144 69 -215 114 -271 168 -64 64 -136 179
-165 265 -40 120 -41 143 -39 1255 1 954 3 1082 17 1141 43 176 148 327 296
424 29 19 54 35 56 35 2 0 70 32 152 71 81 39 184 88 228 109 44 21 134 63
200 95 114 54 155 74 408 194 59 28 155 74 215 102 59 28 143 68 187 89 44 21
160 77 259 124 98 47 180 86 182 86 2 0 45 20 95 45 101 49 170 73 239 82 25
3 46 6 47 7 5 4 103 -2 148 -9z"/>
<path d="M3393 5454 c-46 -12 -173 -74 -603 -296 -122 -64 -344 -178 -725
-373 -324 -166 -346 -179 -394 -225 -56 -53 -97 -120 -122 -198 -16 -53 -18
-113 -18 -859 -1 -868 -2 -842 54 -954 28 -55 95 -127 150 -161 22 -13 166
-89 320 -168 154 -78 339 -173 410 -210 72 -37 220 -113 330 -170 110 -56 273
-140 362 -187 200 -103 229 -114 323 -118 106 -5 155 11 373 124 106 54 305
156 442 227 138 70 304 156 370 190 66 34 165 85 220 113 277 141 387 201 429
235 56 47 104 121 133 206 22 65 22 67 23 860 0 863 1 850 -55 960 -52 103
-106 142 -400 294 -502 258 -550 283 -760 391 -115 59 -292 150 -391 201 -100
52 -201 101 -225 110 -59 21 -182 26 -246 8z"/>
</g>
</svg>
